# xmcd
#
# Track frame offsets:
#	150
#	10072
#	20962
#	34694
#	52356
#	64423
#	79475
#	95210
#	108537
#	125142
#	136459
#	150349
#	165941
#	178083
#	190173
#	208030
#	215845
#	225955
#	240025
#	253487
#	266244
#	278979
#	292786
#	310943
#	326475
#	342097
#
# Disc length: 4793 seconds
#
# Revision: 0
# Processed by: cddbd v1.5.2PL0 Copyright (c) Steve Scherf et al.
# Submitted via: EasyCDDAExtractor 2011.0.0.0
#
DISCID=8b12b71a
DTITLE=Brett Baker - Stealin' The Covers II
DYEAR=1900
DGENRE=Country
TTITLE0=Honk If You Honky Tonk
TTITLE1=Day Dreams About Night Things
TTITLE2=I Don't Know A Thing About Love
TTITLE3=Southern Voice
TTITLE4=It Must Be Love
TTITLE5=The Shake
TTITLE6=Gettin' You Home
TTITLE7=Let Me Be There
TTITLE8=That's How Country Boys Roll
TTITLE9=Big River
TTITLE10=There's A Honky Tonk Angel
TTITLE11=I Wish I Didn't Know Now
TTITLE12=Honky Tonk Crowd
TTITLE13=Take These Chains
TTITLE14=Luckenbach, Texas
TTITLE15=Little Darlin'
TTITLE16=(I'm A) One Woman Man
TTITLE17=(I Never Promised You A) Rose Garden
TTITLE18=Slow Hand
TTITLE19=Troubadour
TTITLE20=Tight Fittin' Jeans
TTITLE21=Better Than It Used To Be
TTITLE22=The Dance
TTITLE23=Write This Down
TTITLE24=You Can't Take The Honky Tonk Out Of The Girl
TTITLE25=Highway 20 Ride (For My Son Mitchel)
EXTD=
EXTT0=
EXTT1=
EXTT2=
EXTT3=
EXTT4=
EXTT5=
EXTT6=
EXTT7=
EXTT8=
EXTT9=
EXTT10=
EXTT11=
EXTT12=
EXTT13=
EXTT14=
EXTT15=
EXTT16=
EXTT17=
EXTT18=
EXTT19=
EXTT20=
EXTT21=
EXTT22=
EXTT23=
EXTT24=
EXTT25=
PLAYORDER=
